<?xml version="1.0" encoding="utf-8"?>
<!-- Generator: Adobe Illustrator 24.0.3, SVG Export Plug-In . SVG Version: 6.00 Build 0)  -->
<svg version="1.1" id="Calque_1" xmlns="http://www.w3.org/2000/svg" xmlns:xlink="http://www.w3.org/1999/xlink" x="0px" y="0px"
	 viewBox="0 0 92.62 62.56" style="enable-background:new 0 0 92.62 62.56;" xml:space="preserve">
<style type="text/css">
	.st0{fill:#DCE5E4;}
	.st1{fill:#E5DF00;}
</style>
<g>
	<path class="st0" d="M14.49,5.69l16.73,41.77L47.96,5.69h8.75v51.19h-6.75V36.94l0.63-21.52l-16.8,41.45h-5.17L11.85,15.53
		l0.67,21.41v19.93H5.77V5.69H14.49z"/>
	<path class="st1" d="M56.8,36.83v20.04h-6.75V5.69h18.88c5.6,0,9.99,1.43,13.17,4.29c3.18,2.86,4.76,6.64,4.76,11.36
		c0,4.97-1.55,8.79-4.66,11.48c-3.11,2.68-7.55,4.03-13.34,4.03H56.8z M56.8,31.32h12.13c3.61,0,6.38-0.85,8.3-2.55
		c1.92-1.7,2.88-4.16,2.88-7.38c0-3.05-0.96-5.49-2.88-7.33s-4.56-2.78-7.91-2.85H56.8V31.32z"/>
</g>
</svg>
